<?xml version="1.0" encoding="UTF-8" standalone="no"?>
<!-- Created with Inkscape (http://www.inkscape.org/) -->

<svg
   xmlns:dc="http://purl.org/dc/elements/1.1/"
   xmlns:cc="http://creativecommons.org/ns#"
   xmlns:rdf="http://www.w3.org/1999/02/22-rdf-syntax-ns#"
   xmlns:svg="http://www.w3.org/2000/svg"
   xmlns="http://www.w3.org/2000/svg"
   xmlns:sodipodi="http://sodipodi.sourceforge.net/DTD/sodipodi-0.dtd"
   xmlns:inkscape="http://www.inkscape.org/namespaces/inkscape"
   width="15.999954"
   height="15.999999"
   viewBox="0 0 4.2333211 4.2333332"
   version="1.1"
   id="svg8"
   inkscape:version="0.92.4 (5da689c313, 2019-01-14)"
   sodipodi:docname="ICON-REMOVE_URL_PARAMETERS-16.SVG.svg">
  <defs
     id="defs2" />
  <sodipodi:namedview
     id="base"
     pagecolor="#ffffff"
     bordercolor="#666666"
     borderopacity="1.0"
     inkscape:pageopacity="0.0"
     inkscape:pageshadow="2"
     inkscape:zoom="15.839192"
     inkscape:cx="5.8106047"
     inkscape:cy="5.7889043"
     inkscape:document-units="mm"
     inkscape:current-layer="layer1"
     showgrid="false"
     inkscape:window-width="1920"
     inkscape:window-height="1058"
     inkscape:window-x="-8"
     inkscape:window-y="-8"
     inkscape:window-maximized="1"
     units="px"
     inkscape:snap-page="true"
     inkscape:snap-grids="true"
     inkscape:snap-to-guides="true"
     fit-margin-top="0"
     fit-margin-left="0"
     fit-margin-right="0"
     fit-margin-bottom="0" />
  <metadata
     id="metadata5">
    <rdf:RDF>
      <cc:Work
         rdf:about="">
        <dc:format>image/svg+xml</dc:format>
        <dc:type
           rdf:resource="http://purl.org/dc/dcmitype/StillImage" />
        <dc:title></dc:title>
      </cc:Work>
    </rdf:RDF>
  </metadata>
  <g
     inkscape:label="Layer 1"
     inkscape:groupmode="layer"
     id="layer1"
     transform="translate(-13.201177,-36.950237)">
    <path
       style="fill:#b50000;fill-opacity:1;stroke-width:0.01023469"
       d="m 15.028799,41.168428 c -0.689042,-0.09323 -1.294244,-0.526179 -1.607155,-1.149724 -0.09954,-0.198357 -0.156609,-0.372447 -0.201232,-0.61388 -0.02548,-0.1379 -0.02569,-0.525548 -3.67e-4,-0.670092 0.07789,-0.444309 0.267178,-0.821294 0.569349,-1.133885 0.644529,-0.666751 1.632606,-0.839917 2.462834,-0.431621 0.891537,0.438442 1.359275,1.445046 1.120159,2.410659 -0.06883,0.277983 -0.222509,0.59028 -0.397172,0.80715 -0.346687,0.430455 -0.84631,0.712403 -1.386421,0.782388 -0.148583,0.01925 -0.413849,0.01878 -0.560008,-9.5e-4 z m 0.458207,-0.413165 c 0.288239,-0.03035 0.580543,-0.140044 0.809421,-0.303761 l 0.09537,-0.06823 -1.192692,-1.191918 c -1.054974,-1.054284 -1.194617,-1.190322 -1.209337,-1.178114 -0.03226,0.02676 -0.159271,0.227305 -0.206086,0.325412 -0.195744,0.410191 -0.217837,0.892786 -0.06029,1.316913 0.269161,0.724603 0.999687,1.180121 1.763607,1.099694 z m 1.202504,-0.693076 c 0.28454,-0.398371 0.385386,-0.879932 0.28312,-1.351934 -0.07528,-0.347437 -0.272314,-0.682687 -0.537111,-0.913864 -0.23316,-0.20356 -0.52695,-0.344494 -0.82898,-0.397672 -0.169508,-0.02984 -0.412642,-0.02984 -0.58215,0 -0.267299,0.04707 -0.549857,0.173411 -0.76807,0.343445 -0.01898,0.0148 0.03936,0.07489 1.172256,1.207319 0.655729,0.65546 1.194948,1.191803 1.198266,1.191872 0.0033,5.8e-5 0.03152,-0.03556 0.06267,-0.07917 z"
       id="path91"
       inkscape:connector-curvature="0" />
    <path
       style="fill:#000000;fill-opacity:1;stroke-width:0.01023469"
       d="m 14.07666,38.297445 v 0.06614 0.06608 l 0.08264,0.01168 c 0.190024,0.02685 0.296155,0.122602 0.296126,0.267173 -3.3e-5,0.121334 -0.05045,0.164425 -0.201785,0.172335 l -0.09759,0.0051 0.0063,0.05226 c 0.0034,0.02874 0.0063,0.104048 0.0064,0.167355 l 1.09e-4,0.115097 h 0.06617 0.06623 l 0.0029,-0.109109 0.0029,-0.109108 0.06494,-0.0132 c 0.130497,-0.02657 0.202679,-0.08321 0.232243,-0.182237 0.01893,-0.06344 0.01939,-0.149967 9.5e-4,-0.192868 -0.0078,-0.01811 -0.06883,-0.08631 -0.135662,-0.151575 -0.116974,-0.114238 -0.124003,-0.119306 -0.188069,-0.134791 -0.0366,-0.0089 -0.09765,-0.0193 -0.135661,-0.02322 z m 1.266142,0.362516 c -0.02667,-2.65e-4 -0.0505,0.0022 -0.08018,0.007 -0.0409,0.0067 -0.07654,0.01449 -0.07922,0.01718 -0.0027,0.0027 0.01539,0.02549 0.04015,0.05069 0.04339,0.04418 0.04724,0.04585 0.106884,0.04605 0.08996,2.64e-4 0.161405,0.02111 0.176871,0.05159 0.007,0.01386 0.01268,0.06339 0.01276,0.111626 l 1.72e-4,0.08673 0.06909,0.06961 0.06914,0.06961 0.0028,-0.252514 c 0.0015,-0.138864 0.0011,-0.25398 -7.5e-4,-0.255873 -0.0019,-0.0019 -0.02904,0.0019 -0.0603,0.0085 -0.0445,0.0093 -0.07921,0.009 -0.160019,-0.0018 -0.0412,-0.0054 -0.07069,-0.0082 -0.09736,-0.0085 z m 0.597179,0.202606 v 0.06138 0.06138 h 0.383918 0.383915 v -0.06138 -0.06138 h -0.383915 z m -0.99767,0.08354 c -0.01333,0.002 -0.01648,0.03514 -0.02581,0.112576 -0.01194,0.09908 0.0018,0.239085 0.03124,0.317701 0.03595,0.09607 0.112782,0.170818 0.198818,0.193429 0.08273,0.02175 0.213634,-0.01341 0.289856,-0.07783 l 0.03392,-0.02871 -0.03785,-0.03872 -0.03784,-0.03872 -0.04048,0.0268 c -0.05587,0.03695 -0.142714,0.04284 -0.19042,0.01293 -0.0602,-0.03775 -0.103435,-0.171975 -0.104028,-0.322905 -1.99e-4,-0.04911 -0.003,-0.05416 -0.06025,-0.110787 -0.03032,-0.02998 -0.0468,-0.04732 -0.05716,-0.04577 z m 0.99767,0.223418 v 0.06138 0.06138 h 0.383918 0.383915 v -0.06138 -0.06138 h -0.383915 z m -1.702463,0.184142 c -0.05682,0 -0.09461,0.02765 -0.110579,0.08091 -0.01503,0.05014 0.0083,0.104276 0.05537,0.128187 0.07663,0.03894 0.160522,-0.01469 0.160522,-0.102616 0,-0.06559 -0.04042,-0.106479 -0.105315,-0.106479 z m 1.282713,0.15913 v 0.206913 0.206912 h 0.07166 0.07166 v -0.135853 -0.135797 l -0.07166,-0.07112 z"
       id="path93"
       inkscape:connector-curvature="0" />
  </g>
</svg>
